<?xml version="1.0" standalone="no"?>
<svg xmlns="http://www.w3.org/2000/svg" width="500" height="500"><defs><clipPath id="clip-path-dot-color"><path d="M 18 146v 16h 8a 8 8, 0, 0, 0, 0 -16" transform="rotate(-90,26,154)"/><rect x="18" y="162" width="16" height="16" transform="rotate(0,26,170)"/><rect x="18" y="178" width="16" height="16" transform="rotate(0,26,186)"/><path d="M 18 194v 16h 16v -8a 8 8, 0, 0, 0, -8 -8" transform="rotate(180,26,202)"/><path d="M 18 226v 16h 8a 8 8, 0, 0, 0, 0 -16" transform="rotate(180,26,234)"/><path d="M 18 258v 16h 16v -8a 8 8, 0, 0, 0, -8 -8" transform="rotate(-90,26,266)"/><path d="M 18 274v 16h 16v -8a 8 8, 0, 0, 0, -8 -8" transform="rotate(180,26,282)"/><path d="M 18 306v 16h 8a 8 8, 0, 0, 0, 0 -16" transform="rotate(180,26,314)"/><path d="M 18 338v 16h 8a 8 8, 0, 0, 0, 0 -16" transform="rotate(180,26,346)"/><rect x="34" y="194" width="16" height="16" transform="rotate(0,42,202)"/><path d="M 34 226v 16h 16v -8a 8 8, 0, 0, 0, -8 -8" transform="rotate(0,42,234)"/><rect x="34" y="242" width="16" height="16" transform="rotate(0,42,250)"/><rect x="34" y="258" width="16" height="16" transform="rotate(0,42,266)"/><rect x="34" y="274" width="16" height="16" transform="rotate(0,42,282)"/><rect x="34" y="290" width="16" height="16" transform="rotate(0,42,298)"/><rect x="34" y="306" width="16" height="16" transform="rotate(0,42,314)"/><rect x="34" y="338" width="16" height="16" transform="rotate(0,42,346)"/><path d="M 50 146v 16h 16v -8a 8 8, 0, 0, 0, -8 -8" transform="rotate(-90,58,154)"/><rect x="50" y="162" width="16" height="16" transform="rotate(0,58,170)"/><rect x="50" y="178" width="16" height="16" transform="rotate(0,58,186)"/><rect x="50" y="194" width="16" height="16" transform="rotate(0,58,202)"/><path d="M 50 258v 16h 16v -8a 8 8, 0, 0, 0, -8 -8" transform="rotate(0,58,266)"/><rect x="50" y="274" width="16" height="16" transform="rotate(0,58,282)"/><rect x="50" y="290" width="16" height="16" transform="rotate(0,58,298)"/><rect x="50" y="306" width="16" height="16" transform="rotate(0,58,314)"/><rect x="50" y="322" width="16" height="16" transform="rotate(0,58,330)"/><rect x="50" y="338" width="16" height="16" transform="rotate(0,58,346)"/><path d="M 66 146v 16h 8a 8 8, 0, 0, 0, 0 -16" transform="rotate(0,74,154)"/><path d="M 66 194v 16h 16v -8a 8 8, 0, 0, 0, -8 -8" transform="rotate(0,74,202)"/><rect x="66" y="210" width="16" height="16" transform="rotate(0,74,218)"/><rect x="66" y="226" width="16" height="16" transform="rotate(0,74,234)"/><path d="M 66 242v 16h 16v -8a 8 8, 0, 0, 0, -8 -8" transform="rotate(180,74,250)"/><path d="M 66 274v 16h 8a 8 8, 0, 0, 0, 0 -16" transform="rotate(0,74,282)"/><path d="M 66 306v 16h 8a 8 8, 0, 0, 0, 0 -16" transform="rotate(0,74,314)"/><path d="M 66 338v 16h 8a 8 8, 0, 0, 0, 0 -16" transform="rotate(0,74,346)"/><rect x="82" y="210" width="16" height="16" transform="rotate(0,90,218)"/><rect x="82" y="226" width="16" height="16" transform="rotate(0,90,234)"/><rect x="82" y="242" width="16" height="16" transform="rotate(0,90,250)"/><path d="M 82 290v 16h 8a 8 8, 0, 0, 0, 0 -16" transform="rotate(180,90,298)"/><path d="M 98 146v 16h 16v -8a 8 8, 0, 0, 0, -8 -8" transform="rotate(-90,106,154)"/><rect x="98" y="162" width="16" height="16" transform="rotate(0,106,170)"/><rect x="98" y="178" width="16" height="16" transform="rotate(0,106,186)"/><rect x="98" y="194" width="16" height="16" transform="rotate(0,106,202)"/><rect x="98" y="210" width="16" height="16" transform="rotate(0,106,218)"/><rect x="98" y="242" width="16" height="16" transform="rotate(0,106,250)"/><path d="M 98 274v 16h 16v -8a 8 8, 0, 0, 0, -8 -8" transform="rotate(-90,106,282)"/><rect x="98" y="290" width="16" height="16" transform="rotate(0,106,298)"/><rect x="98" y="306" width="16" height="16" transform="rotate(0,106,314)"/><path d="M 98 322v 16h 8a 8 8, 0, 0, 0, 0 -16" transform="rotate(90,106,330)"/><rect x="114" y="146" width="16" height="16" transform="rotate(0,122,154)"/><rect x="114" y="178" width="16" height="16" transform="rotate(0,122,186)"/><path d="M 114 210v 16h 8a 8 8, 0, 0, 0, 0 -16" transform="rotate(0,122,218)"/><path d="M 114 242v 16h 8a 8 8, 0, 0, 0, 0 -16" transform="rotate(0,122,250)"/><rect x="114" y="274" width="16" height="16" transform="rotate(0,122,282)"/><path d="M 114 306v 16h 8a 8 8, 0, 0, 0, 0 -16" transform="rotate(0,122,314)"/><circle cx="122" cy="346" r="8" transform="rotate(0,122,346)"/><rect x="130" y="146" width="16" height="16" transform="rotate(0,138,154)"/><rect x="130" y="162" width="16" height="16" transform="rotate(0,138,170)"/><rect x="130" y="178" width="16" height="16" transform="rotate(0,138,186)"/><path d="M 130 226v 16h 8a 8 8, 0, 0, 0, 0 -16" transform="rotate(180,138,234)"/><path d="M 130 258v 16h 8a 8 8, 0, 0, 0, 0 -16" transform="rotate(-90,138,266)"/><path d="M 130 274v 16h 16v -8a 8 8, 0, 0, 0, -8 -8" transform="rotate(90,138,282)"/><circle cx="138" cy="330" r="8" transform="rotate(0,138,330)"/><path d="M 146 34v 16h 8a 8 8, 0, 0, 0, 0 -16" transform="rotate(180,154,42)"/><circle cx="154" cy="74" r="8" transform="rotate(0,154,74)"/><path d="M 146 98v 16h 8a 8 8, 0, 0, 0, 0 -16" transform="rotate(-90,154,106)"/><rect x="146" y="114" width="16" height="16" transform="rotate(0,154,122)"/><rect x="146" y="130" width="16" height="16" transform="rotate(0,154,138)"/><path d="M 146 146v 16h 16v -8a 8 8, 0, 0, 0, -8 -8" transform="rotate(90,154,154)"/><rect x="146" y="178" width="16" height="16" transform="rotate(0,154,186)"/><rect x="146" y="226" width="16" height="16" transform="rotate(0,154,234)"/><path d="M 146 242v 16h 16v -8a 8 8, 0, 0, 0, -8 -8" transform="rotate(180,154,250)"/><path d="M 146 290v 16h 8a 8 8, 0, 0, 0, 0 -16" transform="rotate(180,154,298)"/><path d="M 146 354v 16h 16v -8a 8 8, 0, 0, 0, -8 -8" transform="rotate(-90,154,362)"/><rect x="146" y="370" width="16" height="16" transform="rotate(0,154,378)"/><path d="M 146 386v 16h 16v -8a 8 8, 0, 0, 0, -8 -8" transform="rotate(180,154,394)"/><path d="M 146 418v 16h 8a 8 8, 0, 0, 0, 0 -16" transform="rotate(-90,154,426)"/><path d="M 146 434v 16h 16v -8a 8 8, 0, 0, 0, -8 -8" transform="rotate(180,154,442)"/><path d="M 146 466v 16h 8a 8 8, 0, 0, 0, 0 -16" transform="rotate(180,154,474)"/><rect x="162" y="34" width="16" height="16" transform="rotate(0,170,42)"/><path d="M 162 50v 16h 8a 8 8, 0, 0, 0, 0 -16" transform="rotate(90,170,58)"/><rect x="162" y="130" width="16" height="16" transform="rotate(0,170,138)"/><path d="M 162 178v 16h 8a 8 8, 0, 0, 0, 0 -16" transform="rotate(0,170,186)"/><path d="M 162 226v 16h 16v -8a 8 8, 0, 0, 0, -8 -8" transform="rotate(0,170,234)"/><path d="M 162 242v 16h 16v -8a 8 8, 0, 0, 0, -8 -8" transform="rotate(90,170,250)"/><rect x="162" y="290" width="16" height="16" transform="rotate(0,170,298)"/><path d="M 162 354v 16h 16v -8a 8 8, 0, 0, 0, -8 -8" transform="rotate(0,170,362)"/><rect x="162" y="370" width="16" height="16" transform="rotate(0,170,378)"/><rect x="162" y="386" width="16" height="16" transform="rotate(0,170,394)"/><path d="M 162 434v 16h 8a 8 8, 0, 0, 0, 0 -16" transform="rotate(0,170,442)"/><path d="M 162 466v 16h 8a 8 8, 0, 0, 0, 0 -16" transform="rotate(0,170,474)"/><rect x="178" y="34" width="16" height="16" transform="rotate(0,186,42)"/><path d="M 178 82v 16h 8a 8 8, 0, 0, 0, 0 -16" transform="rotate(-90,186,90)"/><rect x="178" y="98" width="16" height="16" transform="rotate(0,186,106)"/><rect x="178" y="114" width="16" height="16" transform="rotate(0,186,122)"/><rect x="178" y="130" width="16" height="16" transform="rotate(0,186,138)"/><path d="M 178 146v 16h 16v -8a 8 8, 0, 0, 0, -8 -8" transform="rotate(180,186,154)"/><path d="M 178 274v 16h 8a 8 8, 0, 0, 0, 0 -16" transform="rotate(-90,186,282)"/><rect x="178" y="290" width="16" height="16" transform="rotate(0,186,298)"/><rect x="178" y="306" width="16" height="16" transform="rotate(0,186,314)"/><path d="M 178 322v 16h 8a 8 8, 0, 0, 0, 0 -16" transform="rotate(90,186,330)"/><rect x="178" y="370" width="16" height="16" transform="rotate(0,186,378)"/><rect x="178" y="386" width="16" height="16" transform="rotate(0,186,394)"/><path d="M 178 402v 16h 16v -8a 8 8, 0, 0, 0, -8 -8" transform="rotate(180,186,410)"/><path d="M 178 450v 16h 8a 8 8, 0, 0, 0, 0 -16" transform="rotate(180,186,458)"/><path d="M 194 18v 16h 16v -8a 8 8, 0, 0, 0, -8 -8" transform="rotate(-90,202,26)"/><rect x="194" y="34" width="16" height="16" transform="rotate(0,202,42)"/><path d="M 194 50v 16h 16v -8a 8 8, 0, 0, 0, -8 -8" transform="rotate(180,202,58)"/><path d="M 194 130v 16h 16v -8a 8 8, 0, 0, 0, -8 -8" transform="rotate(0,202,138)"/><path d="M 194 146v 16h 16v -8a 8 8, 0, 0, 0, -8 -8" transform="rotate(90,202,154)"/><circle cx="202" cy="202" r="8" transform="rotate(0,202,202)"/><path d="M 194 226v 16h 8a 8 8, 0, 0, 0, 0 -16" transform="rotate(-90,202,234)"/><rect x="194" y="242" width="16" height="16" transform="rotate(0,202,250)"/><path d="M 194 258v 16h 16v -8a 8 8, 0, 0, 0, -8 -8" transform="rotate(180,202,266)"/><path d="M 194 354v 16h 8a 8 8, 0, 0, 0, 0 -16" transform="rotate(-90,202,362)"/><rect x="194" y="370" width="16" height="16" transform="rotate(0,202,378)"/><path d="M 194 402v 16h 8a 8 8, 0, 0, 0, 0 -16" transform="rotate(0,202,410)"/><path d="M 194 434v 16h 8a 8 8, 0, 0, 0, 0 -16" transform="rotate(-90,202,442)"/><path d="M 194 450v 16h 16v -8a 8 8, 0, 0, 0, -8 -8" transform="rotate(90,202,458)"/><path d="M 210 18v 16h 8a 8 8, 0, 0, 0, 0 -16" transform="rotate(0,218,26)"/><path d="M 210 50v 16h 16v -8a 8 8, 0, 0, 0, -8 -8" transform="rotate(0,218,58)"/><rect x="210" y="66" width="16" height="16" transform="rotate(0,218,74)"/><path d="M 210 82v 16h 8a 8 8, 0, 0, 0, 0 -16" transform="rotate(90,218,90)"/><circle cx="218" cy="122" r="8" transform="rotate(0,218,122)"/><path d="M 210 162v 16h 16v -8a 8 8, 0, 0, 0, -8 -8" transform="rotate(-90,218,170)"/><path d="M 210 178v 16h 16v -8a 8 8, 0, 0, 0, -8 -8" transform="rotate(180,218,186)"/><path d="M 210 210v 16h 8a 8 8, 0, 0, 0, 0 -16" transform="rotate(180,218,218)"/><path d="M 210 258v 16h 8a 8 8, 0, 0, 0, 0 -16" transform="rotate(0,218,266)"/><path d="M 210 290v 16h 8a 8 8, 0, 0, 0, 0 -16" transform="rotate(180,218,298)"/><path d="M 210 322v 16h 8a 8 8, 0, 0, 0, 0 -16" transform="rotate(180,218,330)"/><path d="M 210 370v 16h 16v -8a 8 8, 0, 0, 0, -8 -8" transform="rotate(0,218,378)"/><path d="M 210 386v 16h 16v -8a 8 8, 0, 0, 0, -8 -8" transform="rotate(180,218,394)"/><path d="M 210 418v 16h 8a 8 8, 0, 0, 0, 0 -16" transform="rotate(180,218,426)"/><path d="M 226 34v 16h 8a 8 8, 0, 0, 0, 0 -16" transform="rotate(180,234,42)"/><rect x="226" y="66" width="16" height="16" transform="rotate(0,234,74)"/><path d="M 226 130v 16h 8a 8 8, 0, 0, 0, 0 -16" transform="rotate(-90,234,138)"/><rect x="226" y="146" width="16" height="16" transform="rotate(0,234,154)"/><rect x="226" y="162" width="16" height="16" transform="rotate(0,234,170)"/><rect x="226" y="178" width="16" height="16" transform="rotate(0,234,186)"/><rect x="226" y="194" width="16" height="16" transform="rotate(0,234,202)"/><rect x="226" y="210" width="16" height="16" transform="rotate(0,234,218)"/><path d="M 226 274v 16h 8a 8 8, 0, 0, 0, 0 -16" transform="rotate(-90,234,282)"/><rect x="226" y="290" width="16" height="16" transform="rotate(0,234,298)"/><path d="M 226 322v 16h 16v -8a 8 8, 0, 0, 0, -8 -8" transform="rotate(0,234,330)"/><rect x="226" y="338" width="16" height="16" transform="rotate(0,234,346)"/><path d="M 226 354v 16h 16v -8a 8 8, 0, 0, 0, -8 -8" transform="rotate(180,234,362)"/><path d="M 226 386v 16h 8a 8 8, 0, 0, 0, 0 -16" transform="rotate(0,234,394)"/><path d="M 226 418v 16h 8a 8 8, 0, 0, 0, 0 -16" transform="rotate(0,234,426)"/><path d="M 226 450v 16h 8a 8 8, 0, 0, 0, 0 -16" transform="rotate(180,234,458)"/><path d="M 242 34v 16h 8a 8 8, 0, 0, 0, 0 -16" transform="rotate(0,250,42)"/><rect x="242" y="66" width="16" height="16" transform="rotate(0,250,74)"/><path d="M 242 98v 16h 16v -8a 8 8, 0, 0, 0, -8 -8" transform="rotate(-90,250,106)"/><path d="M 242 114v 16h 8a 8 8, 0, 0, 0, 0 -16" transform="rotate(90,250,122)"/><path d="M 242 162v 16h 8a 8 8, 0, 0, 0, 0 -16" transform="rotate(0,250,170)"/><path d="M 242 210v 16h 16v -8a 8 8, 0, 0, 0, -8 -8" transform="rotate(0,250,218)"/><path d="M 242 226v 16h 8a 8 8, 0, 0, 0, 0 -16" transform="rotate(90,250,234)"/><rect x="242" y="290" width="16" height="16" transform="rotate(0,250,298)"/><path d="M 242 306v 16h 16v -8a 8 8, 0, 0, 0, -8 -8" transform="rotate(180,250,314)"/><path d="M 242 338v 16h 16v -8a 8 8, 0, 0, 0, -8 -8" transform="rotate(0,250,346)"/><rect x="242" y="354" width="16" height="16" transform="rotate(0,250,362)"/><rect x="242" y="450" width="16" height="16" transform="rotate(0,250,458)"/><path d="M 242 466v 16h 16v -8a 8 8, 0, 0, 0, -8 -8" transform="rotate(180,250,474)"/><rect x="258" y="66" width="16" height="16" transform="rotate(0,266,74)"/><rect x="258" y="82" width="16" height="16" transform="rotate(0,266,90)"/><path d="M 258 98v 16h 16v -8a 8 8, 0, 0, 0, -8 -8" transform="rotate(90,266,106)"/><circle cx="266" cy="138" r="8" transform="rotate(0,266,138)"/><circle cx="266" cy="250" r="8" transform="rotate(0,266,250)"/><path d="M 258 274v 16h 8a 8 8, 0, 0, 0, 0 -16" transform="rotate(-90,266,282)"/><rect x="258" y="290" width="16" height="16" transform="rotate(0,266,298)"/><rect x="258" y="306" width="16" height="16" transform="rotate(0,266,314)"/><path d="M 258 322v 16h 16v -8a 8 8, 0, 0, 0, -8 -8" transform="rotate(180,266,330)"/><rect x="258" y="354" width="16" height="16" transform="rotate(0,266,362)"/><rect x="258" y="370" width="16" height="16" transform="rotate(0,266,378)"/><path d="M 258 386v 16h 8a 8 8, 0, 0, 0, 0 -16" transform="rotate(90,266,394)"/><path d="M 258 450v 16h 16v -8a 8 8, 0, 0, 0, -8 -8" transform="rotate(0,266,458)"/><path d="M 258 466v 16h 16v -8a 8 8, 0, 0, 0, -8 -8" transform="rotate(90,266,474)"/><circle cx="282" cy="26" r="8" transform="rotate(0,282,26)"/><path d="M 274 50v 16h 16v -8a 8 8, 0, 0, 0, -8 -8" transform="rotate(-90,282,58)"/><rect x="274" y="66" width="16" height="16" transform="rotate(0,282,74)"/><circle cx="282" cy="122" r="8" transform="rotate(0,282,122)"/><path d="M 274 194v 16h 16v -8a 8 8, 0, 0, 0, -8 -8" transform="rotate(-90,282,202)"/><rect x="274" y="210" width="16" height="16" transform="rotate(0,282,218)"/><path d="M 274 226v 16h 16v -8a 8 8, 0, 0, 0, -8 -8" transform="rotate(180,282,234)"/><path d="M 274 258v 16h 8a 8 8, 0, 0, 0, 0 -16" transform="rotate(180,282,266)"/><rect x="274" y="306" width="16" height="16" transform="rotate(0,282,314)"/><rect x="274" y="322" width="16" height="16" transform="rotate(0,282,330)"/><rect x="274" y="338" width="16" height="16" transform="rotate(0,282,346)"/><path d="M 274 354v 16h 16v -8a 8 8, 0, 0, 0, -8 -8" transform="rotate(90,282,362)"/><path d="M 290 34v 16h 8a 8 8, 0, 0, 0, 0 -16" transform="rotate(-90,298,42)"/><rect x="290" y="50" width="16" height="16" transform="rotate(0,298,58)"/><rect x="290" y="66" width="16" height="16" transform="rotate(0,298,74)"/><path d="M 290 130v 16h 16v -8a 8 8, 0, 0, 0, -8 -8" transform="rotate(-90,298,138)"/><path d="M 290 146v 16h 16v -8a 8 8, 0, 0, 0, -8 -8" transform="rotate(180,298,154)"/><path d="M 290 194v 16h 8a 8 8, 0, 0, 0, 0 -16" transform="rotate(0,298,202)"/><rect x="290" y="226" width="16" height="16" transform="rotate(0,298,234)"/><rect x="290" y="242" width="16" height="16" transform="rotate(0,298,250)"/><rect x="290" y="258" width="16" height="16" transform="rotate(0,298,266)"/><rect x="290" y="274" width="16" height="16" transform="rotate(0,298,282)"/><rect x="290" y="290" width="16" height="16" transform="rotate(0,298,298)"/><path d="M 290 306v 16h 16v -8a 8 8, 0, 0, 0, -8 -8" transform="rotate(90,298,314)"/><path d="M 290 370v 16h 8a 8 8, 0, 0, 0, 0 -16" transform="rotate(-90,298,378)"/><path d="M 290 386v 16h 16v -8a 8 8, 0, 0, 0, -8 -8" transform="rotate(180,298,394)"/><path d="M 290 434v 16h 8a 8 8, 0, 0, 0, 0 -16" transform="rotate(-90,298,442)"/><rect x="290" y="450" width="16" height="16" transform="rotate(0,298,458)"/><path d="M 290 466v 16h 16v -8a 8 8, 0, 0, 0, -8 -8" transform="rotate(180,298,474)"/><circle cx="314" cy="26" r="8" transform="rotate(0,314,26)"/><path d="M 306 50v 16h 16v -8a 8 8, 0, 0, 0, -8 -8" transform="rotate(0,314,58)"/><rect x="306" y="66" width="16" height="16" transform="rotate(0,314,74)"/><path d="M 306 82v 16h 16v -8a 8 8, 0, 0, 0, -8 -8" transform="rotate(180,314,90)"/><path d="M 306 114v 16h 8a 8 8, 0, 0, 0, 0 -16" transform="rotate(-90,314,122)"/><rect x="306" y="130" width="16" height="16" transform="rotate(0,314,138)"/><path d="M 306 146v 16h 16v -8a 8 8, 0, 0, 0, -8 -8" transform="rotate(90,314,154)"/><rect x="306" y="226" width="16" height="16" transform="rotate(0,314,234)"/><path d="M 306 258v 16h 16v -8a 8 8, 0, 0, 0, -8 -8" transform="rotate(0,314,266)"/><rect x="306" y="274" width="16" height="16" transform="rotate(0,314,282)"/><rect x="306" y="290" width="16" height="16" transform="rotate(0,314,298)"/><path d="M 306 338v 16h 8a 8 8, 0, 0, 0, 0 -16" transform="rotate(-90,314,346)"/><path d="M 306 354v 16h 8a 8 8, 0, 0, 0, 0 -16" transform="rotate(90,314,362)"/><rect x="306" y="386" width="16" height="16" transform="rotate(0,314,394)"/><path d="M 306 418v 16h 8a 8 8, 0, 0, 0, 0 -16" transform="rotate(180,314,426)"/><path d="M 306 450v 16h 16v -8a 8 8, 0, 0, 0, -8 -8" transform="rotate(0,314,458)"/><path d="M 306 466v 16h 16v -8a 8 8, 0, 0, 0, -8 -8" transform="rotate(90,314,474)"/><rect x="322" y="66" width="16" height="16" transform="rotate(0,330,74)"/><rect x="322" y="82" width="16" height="16" transform="rotate(0,330,90)"/><path d="M 322 98v 16h 16v -8a 8 8, 0, 0, 0, -8 -8" transform="rotate(180,330,106)"/><rect x="322" y="130" width="16" height="16" transform="rotate(0,330,138)"/><circle cx="330" cy="202" r="8" transform="rotate(0,330,202)"/><rect x="322" y="226" width="16" height="16" transform="rotate(0,330,234)"/><path d="M 322 290v 16h 16v -8a 8 8, 0, 0, 0, -8 -8" transform="rotate(0,330,298)"/><rect x="322" y="306" width="16" height="16" transform="rotate(0,330,314)"/><path d="M 322 322v 16h 8a 8 8, 0, 0, 0, 0 -16" transform="rotate(90,330,330)"/><rect x="322" y="386" width="16" height="16" transform="rotate(0,330,394)"/><rect x="322" y="402" width="16" height="16" transform="rotate(0,330,410)"/><rect x="322" y="418" width="16" height="16" transform="rotate(0,330,426)"/><circle cx="346" cy="26" r="8" transform="rotate(0,346,26)"/><path d="M 338 50v 16h 8a 8 8, 0, 0, 0, 0 -16" transform="rotate(-90,346,58)"/><rect x="338" y="66" width="16" height="16" transform="rotate(0,346,74)"/><rect x="338" y="82" width="16" height="16" transform="rotate(0,346,90)"/><rect x="338" y="98" width="16" height="16" transform="rotate(0,346,106)"/><rect x="338" y="114" width="16" height="16" transform="rotate(0,346,122)"/><rect x="338" y="130" width="16" height="16" transform="rotate(0,346,138)"/><rect x="338" y="146" width="16" height="16" transform="rotate(0,346,154)"/><rect x="338" y="162" width="16" height="16" transform="rotate(0,346,170)"/><path d="M 338 178v 16h 8a 8 8, 0, 0, 0, 0 -16" transform="rotate(90,346,186)"/><path d="M 338 210v 16h 16v -8a 8 8, 0, 0, 0, -8 -8" transform="rotate(-90,346,218)"/><rect x="338" y="226" width="16" height="16" transform="rotate(0,346,234)"/><rect x="338" y="242" width="16" height="16" transform="rotate(0,346,250)"/><path d="M 338 258v 16h 8a 8 8, 0, 0, 0, 0 -16" transform="rotate(90,346,266)"/><path d="M 338 306v 16h 8a 8 8, 0, 0, 0, 0 -16" transform="rotate(0,346,314)"/><path d="M 338 338v 16h 16v -8a 8 8, 0, 0, 0, -8 -8" transform="rotate(-90,346,346)"/><rect x="338" y="354" width="16" height="16" transform="rotate(0,346,362)"/><rect x="338" y="370" width="16" height="16" transform="rotate(0,346,378)"/><rect x="338" y="386" width="16" height="16" transform="rotate(0,346,394)"/><rect x="338" y="402" width="16" height="16" transform="rotate(0,346,410)"/><rect x="338" y="418" width="16" height="16" transform="rotate(0,346,426)"/><path d="M 338 434v 16h 8a 8 8, 0, 0, 0, 0 -16" transform="rotate(90,346,442)"/><rect x="354" y="146" width="16" height="16" transform="rotate(0,362,154)"/><path d="M 354 162v 16h 16v -8a 8 8, 0, 0, 0, -8 -8" transform="rotate(90,362,170)"/><rect x="354" y="210" width="16" height="16" transform="rotate(0,362,218)"/><path d="M 354 242v 16h 8a 8 8, 0, 0, 0, 0 -16" transform="rotate(0,362,250)"/><circle cx="362" cy="282" r="8" transform="rotate(0,362,282)"/><path d="M 354 322v 16h 8a 8 8, 0, 0, 0, 0 -16" transform="rotate(-90,362,330)"/><rect x="354" y="338" width="16" height="16" transform="rotate(0,362,346)"/><rect x="354" y="402" width="16" height="16" transform="rotate(0,362,410)"/><path d="M 354 450v 16h 16v -8a 8 8, 0, 0, 0, -8 -8" transform="rotate(-90,362,458)"/><path d="M 354 466v 16h 8a 8 8, 0, 0, 0, 0 -16" transform="rotate(90,362,474)"/><rect x="370" y="146" width="16" height="16" transform="rotate(0,378,154)"/><circle cx="378" cy="186" r="8" transform="rotate(0,378,186)"/><path d="M 370 210v 16h 16v -8a 8 8, 0, 0, 0, -8 -8" transform="rotate(0,378,218)"/><path d="M 370 226v 16h 16v -8a 8 8, 0, 0, 0, -8 -8" transform="rotate(180,378,234)"/><path d="M 370 290v 16h 8a 8 8, 0, 0, 0, 0 -16" transform="rotate(180,378,298)"/><rect x="370" y="338" width="16" height="16" transform="rotate(0,378,346)"/><circle cx="378" cy="378" r="8" transform="rotate(0,378,378)"/><rect x="370" y="402" width="16" height="16" transform="rotate(0,378,410)"/><rect x="370" y="418" width="16" height="16" transform="rotate(0,378,426)"/><rect x="370" y="434" width="16" height="16" transform="rotate(0,378,442)"/><path d="M 370 450v 16h 16v -8a 8 8, 0, 0, 0, -8 -8" transform="rotate(90,378,458)"/><path d="M 386 146v 16h 16v -8a 8 8, 0, 0, 0, -8 -8" transform="rotate(0,394,154)"/><path d="M 386 162v 16h 8a 8 8, 0, 0, 0, 0 -16" transform="rotate(90,394,170)"/><circle cx="394" cy="202" r="8" transform="rotate(0,394,202)"/><rect x="386" y="226" width="16" height="16" transform="rotate(0,394,234)"/><rect x="386" y="242" width="16" height="16" transform="rotate(0,394,250)"/><rect x="386" y="258" width="16" height="16" transform="rotate(0,394,266)"/><rect x="386" y="274" width="16" height="16" transform="rotate(0,394,282)"/><path d="M 386 290v 16h 16v -8a 8 8, 0, 0, 0, -8 -8" transform="rotate(90,394,298)"/><rect x="386" y="338" width="16" height="16" transform="rotate(0,394,346)"/><rect x="386" y="402" width="16" height="16" transform="rotate(0,394,410)"/><path d="M 386 434v 16h 8a 8 8, 0, 0, 0, 0 -16" transform="rotate(0,394,442)"/><path d="M 402 210v 16h 8a 8 8, 0, 0, 0, 0 -16" transform="rotate(-90,410,218)"/><rect x="402" y="226" width="16" height="16" transform="rotate(0,410,234)"/><path d="M 402 242v 16h 16v -8a 8 8, 0, 0, 0, -8 -8" transform="rotate(90,410,250)"/><rect x="402" y="338" width="16" height="16" transform="rotate(0,410,346)"/><rect x="402" y="354" width="16" height="16" transform="rotate(0,410,362)"/><rect x="402" y="370" width="16" height="16" transform="rotate(0,410,378)"/><rect x="402" y="386" width="16" height="16" transform="rotate(0,410,394)"/><rect x="402" y="402" width="16" height="16" transform="rotate(0,410,410)"/><path d="M 402 418v 16h 8a 8 8, 0, 0, 0, 0 -16" transform="rotate(90,410,426)"/><circle cx="426" cy="154" r="8" transform="rotate(0,426,154)"/><path d="M 418 178v 16h 8a 8 8, 0, 0, 0, 0 -16" transform="rotate(180,426,186)"/><path d="M 418 258v 16h 8a 8 8, 0, 0, 0, 0 -16" transform="rotate(-90,426,266)"/><path d="M 418 274v 16h 8a 8 8, 0, 0, 0, 0 -16" transform="rotate(90,426,282)"/><path d="M 418 322v 16h 16v -8a 8 8, 0, 0, 0, -8 -8" transform="rotate(-90,426,330)"/><rect x="418" y="338" width="16" height="16" transform="rotate(0,426,346)"/><rect x="418" y="354" width="16" height="16" transform="rotate(0,426,362)"/><path d="M 418 370v 16h 16v -8a 8 8, 0, 0, 0, -8 -8" transform="rotate(90,426,378)"/><rect x="418" y="402" width="16" height="16" transform="rotate(0,426,410)"/><path d="M 418 466v 16h 8a 8 8, 0, 0, 0, 0 -16" transform="rotate(180,426,474)"/><rect x="434" y="178" width="16" height="16" transform="rotate(0,442,186)"/><path d="M 434 210v 16h 16v -8a 8 8, 0, 0, 0, -8 -8" transform="rotate(-90,442,218)"/><path d="M 434 226v 16h 8a 8 8, 0, 0, 0, 0 -16" transform="rotate(90,442,234)"/><path d="M 434 322v 16h 16v -8a 8 8, 0, 0, 0, -8 -8" transform="rotate(0,442,330)"/><rect x="434" y="338" width="16" height="16" transform="rotate(0,442,346)"/><path d="M 434 402v 16h 16v -8a 8 8, 0, 0, 0, -8 -8" transform="rotate(0,442,410)"/><rect x="434" y="418" width="16" height="16" transform="rotate(0,442,426)"/><path d="M 434 434v 16h 8a 8 8, 0, 0, 0, 0 -16" transform="rotate(90,442,442)"/><path d="M 434 466v 16h 8a 8 8, 0, 0, 0, 0 -16" transform="rotate(0,442,474)"/><circle cx="458" cy="154" r="8" transform="rotate(0,458,154)"/><path d="M 450 178v 16h 16v -8a 8 8, 0, 0, 0, -8 -8" transform="rotate(0,458,186)"/><rect x="450" y="194" width="16" height="16" transform="rotate(0,458,202)"/><rect x="450" y="210" width="16" height="16" transform="rotate(0,458,218)"/><path d="M 450 242v 16h 16v -8a 8 8, 0, 0, 0, -8 -8" transform="rotate(-90,458,250)"/><path d="M 450 258v 16h 8a 8 8, 0, 0, 0, 0 -16" transform="rotate(90,458,266)"/><path d="M 450 290v 16h 8a 8 8, 0, 0, 0, 0 -16" transform="rotate(180,458,298)"/><rect x="450" y="338" width="16" height="16" transform="rotate(0,458,346)"/><path d="M 450 354v 16h 8a 8 8, 0, 0, 0, 0 -16" transform="rotate(90,458,362)"/><circle cx="458" cy="394" r="8" transform="rotate(0,458,394)"/><path d="M 450 450v 16h 8a 8 8, 0, 0, 0, 0 -16" transform="rotate(180,458,458)"/><circle cx="474" cy="170" r="8" transform="rotate(0,474,170)"/><path d="M 466 194v 16h 16v -8a 8 8, 0, 0, 0, -8 -8" transform="rotate(0,474,202)"/><rect x="466" y="210" width="16" height="16" transform="rotate(0,474,218)"/><rect x="466" y="226" width="16" height="16" transform="rotate(0,474,234)"/><path d="M 466 242v 16h 16v -8a 8 8, 0, 0, 0, -8 -8" transform="rotate(90,474,250)"/><path d="M 466 290v 16h 8a 8 8, 0, 0, 0, 0 -16" transform="rotate(0,474,298)"/><path d="M 466 338v 16h 8a 8 8, 0, 0, 0, 0 -16" transform="rotate(0,474,346)"/><path d="M 466 402v 16h 8a 8 8, 0, 0, 0, 0 -16" transform="rotate(-90,474,410)"/><path d="M 466 418v 16h 8a 8 8, 0, 0, 0, 0 -16" transform="rotate(90,474,426)"/><path d="M 466 450v 16h 8a 8 8, 0, 0, 0, 0 -16" transform="rotate(0,474,458)"/><path clip-rule="evenodd" d="M 18 58v 32a 40 40, 0, 0, 0, 40 40h 32a 40 40, 0, 0, 0, 40 -40v -32a 40 40, 0, 0, 0, -40 -40h -32a 40 40, 0, 0, 0, -40 40M 58 34h 32a 24 24, 0, 0, 1, 24 24v 32a 24 24, 0, 0, 1, -24 24h -32a 24 24, 0, 0, 1, -24 -24v -32a 24 24, 0, 0, 1, 24 -24" transform="rotate(0,74,74)"/><circle cx="74" cy="74" r="24" transform="rotate(0,74,74)"/><path clip-rule="evenodd" d="M 370 58v 32a 40 40, 0, 0, 0, 40 40h 32a 40 40, 0, 0, 0, 40 -40v -32a 40 40, 0, 0, 0, -40 -40h -32a 40 40, 0, 0, 0, -40 40M 410 34h 32a 24 24, 0, 0, 1, 24 24v 32a 24 24, 0, 0, 1, -24 24h -32a 24 24, 0, 0, 1, -24 -24v -32a 24 24, 0, 0, 1, 24 -24" transform="rotate(90,426,74)"/><circle cx="426" cy="74" r="24" transform="rotate(90,426,74)"/><path clip-rule="evenodd" d="M 18 410v 32a 40 40, 0, 0, 0, 40 40h 32a 40 40, 0, 0, 0, 40 -40v -32a 40 40, 0, 0, 0, -40 -40h -32a 40 40, 0, 0, 0, -40 40M 58 386h 32a 24 24, 0, 0, 1, 24 24v 32a 24 24, 0, 0, 1, -24 24h -32a 24 24, 0, 0, 1, -24 -24v -32a 24 24, 0, 0, 1, 24 -24" transform="rotate(-90,74,426)"/><circle cx="74" cy="426" r="24" transform="rotate(-90,74,426)"/></clipPath></defs><rect x="0" y="0" height="500" width="500" clip-path="url('#clip-path-background-color')" fill="#fff"/><rect x="0" y="0" height="500" width="500" clip-path="url('#clip-path-dot-color')" fill="#000000"/></svg>