<?xml version="1.0" standalone="no"?>
<svg xmlns="http://www.w3.org/2000/svg" width="500" height="500"><defs><clipPath id="clip-path-dot-color"><path d="M 18 178v 16h 8a 8 8, 0, 0, 0, 0 -16" transform="rotate(-90,26,186)"/><path d="M 18 194v 16h 8a 8 8, 0, 0, 0, 0 -16" transform="rotate(90,26,202)"/><path d="M 18 274v 16h 16v -8a 8 8, 0, 0, 0, -8 -8" transform="rotate(-90,26,282)"/><rect x="18" y="290" width="16" height="16" transform="rotate(0,26,298)"/><path d="M 18 306v 16h 16v -8a 8 8, 0, 0, 0, -8 -8" transform="rotate(180,26,314)"/><circle cx="26" cy="346" r="8" transform="rotate(0,26,346)"/><circle cx="42" cy="218" r="8" transform="rotate(0,42,218)"/><circle cx="42" cy="250" r="8" transform="rotate(0,42,250)"/><path d="M 34 274v 16h 8a 8 8, 0, 0, 0, 0 -16" transform="rotate(0,42,282)"/><path d="M 34 306v 16h 16v -8a 8 8, 0, 0, 0, -8 -8" transform="rotate(0,42,314)"/><path d="M 34 322v 16h 16v -8a 8 8, 0, 0, 0, -8 -8" transform="rotate(180,42,330)"/><circle cx="58" cy="154" r="8" transform="rotate(0,58,154)"/><path d="M 50 178v 16h 8a 8 8, 0, 0, 0, 0 -16" transform="rotate(-90,58,186)"/><path d="M 50 194v 16h 16v -8a 8 8, 0, 0, 0, -8 -8" transform="rotate(180,58,202)"/><circle cx="58" cy="234" r="8" transform="rotate(0,58,234)"/><circle cx="58" cy="266" r="8" transform="rotate(0,58,266)"/><circle cx="58" cy="298" r="8" transform="rotate(0,58,298)"/><rect x="50" y="322" width="16" height="16" transform="rotate(0,58,330)"/><path d="M 50 338v 16h 16v -8a 8 8, 0, 0, 0, -8 -8" transform="rotate(180,58,346)"/><rect x="66" y="194" width="16" height="16" transform="rotate(0,74,202)"/><path d="M 66 242v 16h 8a 8 8, 0, 0, 0, 0 -16" transform="rotate(180,74,250)"/><path d="M 66 274v 16h 8a 8 8, 0, 0, 0, 0 -16" transform="rotate(180,74,282)"/><path d="M 66 306v 16h 8a 8 8, 0, 0, 0, 0 -16" transform="rotate(-90,74,314)"/><rect x="66" y="322" width="16" height="16" transform="rotate(0,74,330)"/><path d="M 66 338v 16h 16v -8a 8 8, 0, 0, 0, -8 -8" transform="rotate(90,74,346)"/><path d="M 82 146v 16h 16v -8a 8 8, 0, 0, 0, -8 -8" transform="rotate(-90,90,154)"/><path d="M 82 162v 16h 8a 8 8, 0, 0, 0, 0 -16" transform="rotate(90,90,170)"/><rect x="82" y="194" width="16" height="16" transform="rotate(0,90,202)"/><path d="M 82 226v 16h 16v -8a 8 8, 0, 0, 0, -8 -8" transform="rotate(-90,90,234)"/><rect x="82" y="242" width="16" height="16" transform="rotate(0,90,250)"/><rect x="82" y="258" width="16" height="16" transform="rotate(0,90,266)"/><rect x="82" y="274" width="16" height="16" transform="rotate(0,90,282)"/><path d="M 82 290v 16h 16v -8a 8 8, 0, 0, 0, -8 -8" transform="rotate(180,90,298)"/><rect x="98" y="146" width="16" height="16" transform="rotate(0,106,154)"/><path d="M 98 194v 16h 8a 8 8, 0, 0, 0, 0 -16" transform="rotate(0,106,202)"/><path d="M 98 226v 16h 8a 8 8, 0, 0, 0, 0 -16" transform="rotate(0,106,234)"/><path d="M 98 290v 16h 8a 8 8, 0, 0, 0, 0 -16" transform="rotate(0,106,298)"/><circle cx="106" cy="330" r="8" transform="rotate(0,106,330)"/><path d="M 114 146v 16h 8a 8 8, 0, 0, 0, 0 -16" transform="rotate(0,122,154)"/><path d="M 114 178v 16h 8a 8 8, 0, 0, 0, 0 -16" transform="rotate(180,122,186)"/><circle cx="122" cy="218" r="8" transform="rotate(0,122,218)"/><circle cx="122" cy="250" r="8" transform="rotate(0,122,250)"/><path d="M 114 274v 16h 8a 8 8, 0, 0, 0, 0 -16" transform="rotate(180,122,282)"/><path d="M 114 306v 16h 8a 8 8, 0, 0, 0, 0 -16" transform="rotate(180,122,314)"/><path d="M 114 338v 16h 8a 8 8, 0, 0, 0, 0 -16" transform="rotate(180,122,346)"/><path d="M 130 162v 16h 8a 8 8, 0, 0, 0, 0 -16" transform="rotate(-90,138,170)"/><rect x="130" y="178" width="16" height="16" transform="rotate(0,138,186)"/><path d="M 130 194v 16h 8a 8 8, 0, 0, 0, 0 -16" transform="rotate(90,138,202)"/><circle cx="138" cy="234" r="8" transform="rotate(0,138,234)"/><path d="M 130 274v 16h 16v -8a 8 8, 0, 0, 0, -8 -8" transform="rotate(0,138,282)"/><rect x="130" y="290" width="16" height="16" transform="rotate(0,138,298)"/><rect x="130" y="306" width="16" height="16" transform="rotate(0,138,314)"/><rect x="130" y="338" width="16" height="16" transform="rotate(0,138,346)"/><circle cx="154" cy="42" r="8" transform="rotate(0,154,42)"/><path d="M 146 82v 16h 8a 8 8, 0, 0, 0, 0 -16" transform="rotate(180,154,90)"/><circle cx="154" cy="122" r="8" transform="rotate(0,154,122)"/><path d="M 146 146v 16h 8a 8 8, 0, 0, 0, 0 -16" transform="rotate(180,154,154)"/><path d="M 146 242v 16h 16v -8a 8 8, 0, 0, 0, -8 -8" transform="rotate(-90,154,250)"/><path d="M 146 258v 16h 16v -8a 8 8, 0, 0, 0, -8 -8" transform="rotate(180,154,266)"/><rect x="146" y="306" width="16" height="16" transform="rotate(0,154,314)"/><rect x="146" y="322" width="16" height="16" transform="rotate(0,154,330)"/><rect x="146" y="338" width="16" height="16" transform="rotate(0,154,346)"/><path d="M 146 354v 16h 8a 8 8, 0, 0, 0, 0 -16" transform="rotate(90,154,362)"/><path d="M 146 386v 16h 16v -8a 8 8, 0, 0, 0, -8 -8" transform="rotate(-90,154,394)"/><path d="M 146 402v 16h 16v -8a 8 8, 0, 0, 0, -8 -8" transform="rotate(180,154,410)"/><path d="M 146 434v 16h 8a 8 8, 0, 0, 0, 0 -16" transform="rotate(180,154,442)"/><circle cx="170" cy="58" r="8" transform="rotate(0,170,58)"/><path d="M 162 82v 16h 8a 8 8, 0, 0, 0, 0 -16" transform="rotate(0,170,90)"/><path d="M 162 146v 16h 8a 8 8, 0, 0, 0, 0 -16" transform="rotate(0,170,154)"/><path d="M 162 226v 16h 8a 8 8, 0, 0, 0, 0 -16" transform="rotate(-90,170,234)"/><rect x="162" y="242" width="16" height="16" transform="rotate(0,170,250)"/><rect x="162" y="258" width="16" height="16" transform="rotate(0,170,266)"/><rect x="162" y="306" width="16" height="16" transform="rotate(0,170,314)"/><path d="M 162 370v 16h 8a 8 8, 0, 0, 0, 0 -16" transform="rotate(-90,170,378)"/><rect x="162" y="386" width="16" height="16" transform="rotate(0,170,394)"/><rect x="162" y="402" width="16" height="16" transform="rotate(0,170,410)"/><rect x="162" y="418" width="16" height="16" transform="rotate(0,170,426)"/><rect x="162" y="434" width="16" height="16" transform="rotate(0,170,442)"/><rect x="162" y="450" width="16" height="16" transform="rotate(0,170,458)"/><path d="M 162 466v 16h 16v -8a 8 8, 0, 0, 0, -8 -8" transform="rotate(180,170,474)"/><path d="M 178 18v 16h 8a 8 8, 0, 0, 0, 0 -16" transform="rotate(180,186,26)"/><path d="M 178 66v 16h 8a 8 8, 0, 0, 0, 0 -16" transform="rotate(180,186,74)"/><path d="M 178 98v 16h 16v -8a 8 8, 0, 0, 0, -8 -8" transform="rotate(-90,186,106)"/><path d="M 178 114v 16h 8a 8 8, 0, 0, 0, 0 -16" transform="rotate(90,186,122)"/><path d="M 178 194v 16h 8a 8 8, 0, 0, 0, 0 -16" transform="rotate(-90,186,202)"/><path d="M 178 210v 16h 16v -8a 8 8, 0, 0, 0, -8 -8" transform="rotate(180,186,218)"/><rect x="178" y="258" width="16" height="16" transform="rotate(0,186,266)"/><path d="M 178 290v 16h 16v -8a 8 8, 0, 0, 0, -8 -8" transform="rotate(-90,186,298)"/><path d="M 178 306v 16h 16v -8a 8 8, 0, 0, 0, -8 -8" transform="rotate(90,186,314)"/><path d="M 178 354v 16h 8a 8 8, 0, 0, 0, 0 -16" transform="rotate(180,186,362)"/><rect x="178" y="402" width="16" height="16" transform="rotate(0,186,410)"/><path d="M 178 434v 16h 8a 8 8, 0, 0, 0, 0 -16" transform="rotate(0,186,442)"/><rect x="178" y="466" width="16" height="16" transform="rotate(0,186,474)"/><rect x="194" y="18" width="16" height="16" transform="rotate(0,202,26)"/><path d="M 194 34v 16h 8a 8 8, 0, 0, 0, 0 -16" transform="rotate(90,202,42)"/><rect x="194" y="66" width="16" height="16" transform="rotate(0,202,74)"/><rect x="194" y="98" width="16" height="16" transform="rotate(0,202,106)"/><path d="M 194 146v 16h 16v -8a 8 8, 0, 0, 0, -8 -8" transform="rotate(-90,202,154)"/><rect x="194" y="162" width="16" height="16" transform="rotate(0,202,170)"/><path d="M 194 178v 16h 8a 8 8, 0, 0, 0, 0 -16" transform="rotate(90,202,186)"/><rect x="194" y="210" width="16" height="16" transform="rotate(0,202,218)"/><rect x="194" y="258" width="16" height="16" transform="rotate(0,202,266)"/><rect x="194" y="274" width="16" height="16" transform="rotate(0,202,282)"/><rect x="194" y="290" width="16" height="16" transform="rotate(0,202,298)"/><path d="M 194 322v 16h 8a 8 8, 0, 0, 0, 0 -16" transform="rotate(180,202,330)"/><path d="M 194 354v 16h 8a 8 8, 0, 0, 0, 0 -16" transform="rotate(0,202,362)"/><path d="M 194 386v 16h 16v -8a 8 8, 0, 0, 0, -8 -8" transform="rotate(-90,202,394)"/><rect x="194" y="402" width="16" height="16" transform="rotate(0,202,410)"/><path d="M 194 418v 16h 16v -8a 8 8, 0, 0, 0, -8 -8" transform="rotate(180,202,426)"/><path d="M 194 450v 16h 8a 8 8, 0, 0, 0, 0 -16" transform="rotate(-90,202,458)"/><rect x="194" y="466" width="16" height="16" transform="rotate(0,202,474)"/><rect x="210" y="18" width="16" height="16" transform="rotate(0,218,26)"/><rect x="210" y="66" width="16" height="16" transform="rotate(0,218,74)"/><rect x="210" y="82" width="16" height="16" transform="rotate(0,218,90)"/><rect x="210" y="98" width="16" height="16" transform="rotate(0,218,106)"/><path d="M 210 114v 16h 8a 8 8, 0, 0, 0, 0 -16" transform="rotate(90,218,122)"/><rect x="210" y="146" width="16" height="16" transform="rotate(0,218,154)"/><path d="M 210 194v 16h 16v -8a 8 8, 0, 0, 0, -8 -8" transform="rotate(-90,218,202)"/><rect x="210" y="210" width="16" height="16" transform="rotate(0,218,218)"/><path d="M 210 226v 16h 16v -8a 8 8, 0, 0, 0, -8 -8" transform="rotate(180,218,234)"/><path d="M 210 258v 16h 8a 8 8, 0, 0, 0, 0 -16" transform="rotate(0,218,266)"/><rect x="210" y="290" width="16" height="16" transform="rotate(0,218,298)"/><rect x="210" y="306" width="16" height="16" transform="rotate(0,218,314)"/><rect x="210" y="322" width="16" height="16" transform="rotate(0,218,330)"/><path d="M 210 338v 16h 8a 8 8, 0, 0, 0, 0 -16" transform="rotate(90,218,346)"/><path d="M 210 386v 16h 8a 8 8, 0, 0, 0, 0 -16" transform="rotate(0,218,394)"/><path d="M 210 418v 16h 8a 8 8, 0, 0, 0, 0 -16" transform="rotate(0,218,426)"/><rect x="210" y="466" width="16" height="16" transform="rotate(0,218,474)"/><rect x="226" y="18" width="16" height="16" transform="rotate(0,234,26)"/><path d="M 226 50v 16h 16v -8a 8 8, 0, 0, 0, -8 -8" transform="rotate(-90,234,58)"/><rect x="226" y="66" width="16" height="16" transform="rotate(0,234,74)"/><rect x="226" y="82" width="16" height="16" transform="rotate(0,234,90)"/><path d="M 226 98v 16h 16v -8a 8 8, 0, 0, 0, -8 -8" transform="rotate(90,234,106)"/><path d="M 226 130v 16h 8a 8 8, 0, 0, 0, 0 -16" transform="rotate(-90,234,138)"/><path d="M 226 146v 16h 16v -8a 8 8, 0, 0, 0, -8 -8" transform="rotate(90,234,154)"/><path d="M 226 178v 16h 8a 8 8, 0, 0, 0, 0 -16" transform="rotate(-90,234,186)"/><rect x="226" y="194" width="16" height="16" transform="rotate(0,234,202)"/><rect x="226" y="210" width="16" height="16" transform="rotate(0,234,218)"/><rect x="226" y="226" width="16" height="16" transform="rotate(0,234,234)"/><path d="M 226 290v 16h 8a 8 8, 0, 0, 0, 0 -16" transform="rotate(0,234,298)"/><circle cx="234" cy="378" r="8" transform="rotate(0,234,378)"/><path d="M 226 402v 16h 8a 8 8, 0, 0, 0, 0 -16" transform="rotate(180,234,410)"/><circle cx="234" cy="442" r="8" transform="rotate(0,234,442)"/><rect x="226" y="466" width="16" height="16" transform="rotate(0,234,474)"/><rect x="242" y="18" width="16" height="16" transform="rotate(0,250,26)"/><rect x="242" y="50" width="16" height="16" transform="rotate(0,250,58)"/><circle cx="250" cy="122" r="8" transform="rotate(0,250,122)"/><rect x="242" y="226" width="16" height="16" transform="rotate(0,250,234)"/><path d="M 242 242v 16h 16v -8a 8 8, 0, 0, 0, -8 -8" transform="rotate(180,250,250)"/><circle cx="250" cy="282" r="8" transform="rotate(0,250,282)"/><circle cx="250" cy="314" r="8" transform="rotate(0,250,314)"/><circle cx="250" cy="362" r="8" transform="rotate(0,250,362)"/><path d="M 242 402v 16h 8a 8 8, 0, 0, 0, 0 -16" transform="rotate(0,250,410)"/><rect x="242" y="466" width="16" height="16" transform="rotate(0,250,474)"/><path d="M 258 18v 16h 16v -8a 8 8, 0, 0, 0, -8 -8" transform="rotate(0,266,26)"/><rect x="258" y="34" width="16" height="16" transform="rotate(0,266,42)"/><rect x="258" y="50" width="16" height="16" transform="rotate(0,266,58)"/><path d="M 258 226v 16h 16v -8a 8 8, 0, 0, 0, -8 -8" transform="rotate(0,266,234)"/><rect x="258" y="242" width="16" height="16" transform="rotate(0,266,250)"/><path d="M 258 322v 16h 8a 8 8, 0, 0, 0, 0 -16" transform="rotate(-90,266,330)"/><path d="M 258 338v 16h 8a 8 8, 0, 0, 0, 0 -16" transform="rotate(90,266,346)"/><path d="M 258 370v 16h 8a 8 8, 0, 0, 0, 0 -16" transform="rotate(-90,266,378)"/><path d="M 258 386v 16h 8a 8 8, 0, 0, 0, 0 -16" transform="rotate(90,266,394)"/><circle cx="266" cy="426" r="8" transform="rotate(0,266,426)"/><rect x="258" y="466" width="16" height="16" transform="rotate(0,266,474)"/><path d="M 274 50v 16h 16v -8a 8 8, 0, 0, 0, -8 -8" transform="rotate(0,282,58)"/><path d="M 274 66v 16h 16v -8a 8 8, 0, 0, 0, -8 -8" transform="rotate(180,282,74)"/><path d="M 274 98v 16h 8a 8 8, 0, 0, 0, 0 -16" transform="rotate(-90,282,106)"/><rect x="274" y="114" width="16" height="16" transform="rotate(0,282,122)"/><rect x="274" y="130" width="16" height="16" transform="rotate(0,282,138)"/><rect x="274" y="146" width="16" height="16" transform="rotate(0,282,154)"/><path d="M 274 162v 16h 16v -8a 8 8, 0, 0, 0, -8 -8" transform="rotate(180,282,170)"/><path d="M 274 210v 16h 8a 8 8, 0, 0, 0, 0 -16" transform="rotate(180,282,218)"/><path d="M 274 242v 16h 8a 8 8, 0, 0, 0, 0 -16" transform="rotate(0,282,250)"/><circle cx="282" cy="282" r="8" transform="rotate(0,282,282)"/><rect x="274" y="466" width="16" height="16" transform="rotate(0,282,474)"/><circle cx="298" cy="26" r="8" transform="rotate(0,298,26)"/><path d="M 290 66v 16h 16v -8a 8 8, 0, 0, 0, -8 -8" transform="rotate(0,298,74)"/><path d="M 290 82v 16h 16v -8a 8 8, 0, 0, 0, -8 -8" transform="rotate(180,298,90)"/><rect x="290" y="146" width="16" height="16" transform="rotate(0,298,154)"/><rect x="290" y="162" width="16" height="16" transform="rotate(0,298,170)"/><rect x="290" y="178" width="16" height="16" transform="rotate(0,298,186)"/><rect x="290" y="194" width="16" height="16" transform="rotate(0,298,202)"/><path d="M 290 210v 16h 16v -8a 8 8, 0, 0, 0, -8 -8" transform="rotate(90,298,218)"/><circle cx="298" cy="314" r="8" transform="rotate(0,298,314)"/><path d="M 290 370v 16h 8a 8 8, 0, 0, 0, 0 -16" transform="rotate(-90,298,378)"/><rect x="290" y="386" width="16" height="16" transform="rotate(0,298,394)"/><path d="M 290 402v 16h 16v -8a 8 8, 0, 0, 0, -8 -8" transform="rotate(180,298,410)"/><rect x="290" y="466" width="16" height="16" transform="rotate(0,298,474)"/><path d="M 306 82v 16h 16v -8a 8 8, 0, 0, 0, -8 -8" transform="rotate(0,314,90)"/><rect x="306" y="98" width="16" height="16" transform="rotate(0,314,106)"/><path d="M 306 114v 16h 8a 8 8, 0, 0, 0, 0 -16" transform="rotate(90,314,122)"/><path d="M 306 146v 16h 8a 8 8, 0, 0, 0, 0 -16" transform="rotate(0,314,154)"/><rect x="306" y="178" width="16" height="16" transform="rotate(0,314,186)"/><path d="M 306 194v 16h 16v -8a 8 8, 0, 0, 0, -8 -8" transform="rotate(90,314,202)"/><path d="M 306 242v 16h 8a 8 8, 0, 0, 0, 0 -16" transform="rotate(-90,314,250)"/><path d="M 306 258v 16h 16v -8a 8 8, 0, 0, 0, -8 -8" transform="rotate(180,314,266)"/><path d="M 306 290v 16h 8a 8 8, 0, 0, 0, 0 -16" transform="rotate(180,314,298)"/><path d="M 306 402v 16h 16v -8a 8 8, 0, 0, 0, -8 -8" transform="rotate(0,314,410)"/><rect x="306" y="418" width="16" height="16" transform="rotate(0,314,426)"/><path d="M 306 434v 16h 8a 8 8, 0, 0, 0, 0 -16" transform="rotate(90,314,442)"/><rect x="306" y="466" width="16" height="16" transform="rotate(0,314,474)"/><circle cx="330" cy="58" r="8" transform="rotate(0,330,58)"/><path d="M 322 98v 16h 8a 8 8, 0, 0, 0, 0 -16" transform="rotate(0,330,106)"/><path d="M 322 162v 16h 8a 8 8, 0, 0, 0, 0 -16" transform="rotate(-90,330,170)"/><rect x="322" y="178" width="16" height="16" transform="rotate(0,330,186)"/><circle cx="330" cy="234" r="8" transform="rotate(0,330,234)"/><path d="M 322 258v 16h 16v -8a 8 8, 0, 0, 0, -8 -8" transform="rotate(0,330,266)"/><rect x="322" y="274" width="16" height="16" transform="rotate(0,330,282)"/><rect x="322" y="290" width="16" height="16" transform="rotate(0,330,298)"/><path d="M 322 306v 16h 16v -8a 8 8, 0, 0, 0, -8 -8" transform="rotate(180,330,314)"/><path d="M 322 386v 16h 8a 8 8, 0, 0, 0, 0 -16" transform="rotate(180,330,394)"/><path d="M 322 418v 16h 8a 8 8, 0, 0, 0, 0 -16" transform="rotate(0,330,426)"/><path d="M 322 450v 16h 16v -8a 8 8, 0, 0, 0, -8 -8" transform="rotate(-90,330,458)"/><rect x="322" y="466" width="16" height="16" transform="rotate(0,330,474)"/><path d="M 338 18v 16h 8a 8 8, 0, 0, 0, 0 -16" transform="rotate(-90,346,26)"/><path d="M 338 34v 16h 8a 8 8, 0, 0, 0, 0 -16" transform="rotate(90,346,42)"/><circle cx="346" cy="122" r="8" transform="rotate(0,346,122)"/><path d="M 338 178v 16h 8a 8 8, 0, 0, 0, 0 -16" transform="rotate(0,346,186)"/><circle cx="346" cy="250" r="8" transform="rotate(0,346,250)"/><path d="M 338 290v 16h 16v -8a 8 8, 0, 0, 0, -8 -8" transform="rotate(0,346,298)"/><rect x="338" y="306" width="16" height="16" transform="rotate(0,346,314)"/><rect x="338" y="322" width="16" height="16" transform="rotate(0,346,330)"/><rect x="338" y="338" width="16" height="16" transform="rotate(0,346,346)"/><rect x="338" y="354" width="16" height="16" transform="rotate(0,346,362)"/><rect x="338" y="370" width="16" height="16" transform="rotate(0,346,378)"/><rect x="338" y="386" width="16" height="16" transform="rotate(0,346,394)"/><path d="M 338 402v 16h 16v -8a 8 8, 0, 0, 0, -8 -8" transform="rotate(180,346,410)"/><rect x="338" y="450" width="16" height="16" transform="rotate(0,346,458)"/><rect x="338" y="466" width="16" height="16" transform="rotate(0,346,474)"/><path d="M 354 146v 16h 8a 8 8, 0, 0, 0, 0 -16" transform="rotate(-90,362,154)"/><path d="M 354 162v 16h 16v -8a 8 8, 0, 0, 0, -8 -8" transform="rotate(180,362,170)"/><path d="M 354 210v 16h 8a 8 8, 0, 0, 0, 0 -16" transform="rotate(180,362,218)"/><path d="M 354 258v 16h 16v -8a 8 8, 0, 0, 0, -8 -8" transform="rotate(-90,362,266)"/><path d="M 354 274v 16h 16v -8a 8 8, 0, 0, 0, -8 -8" transform="rotate(180,362,282)"/><rect x="354" y="322" width="16" height="16" transform="rotate(0,362,330)"/><rect x="354" y="338" width="16" height="16" transform="rotate(0,362,346)"/><rect x="354" y="402" width="16" height="16" transform="rotate(0,362,410)"/><path d="M 354 434v 16h 8a 8 8, 0, 0, 0, 0 -16" transform="rotate(-90,362,442)"/><rect x="354" y="450" width="16" height="16" transform="rotate(0,362,458)"/><rect x="354" y="466" width="16" height="16" transform="rotate(0,362,474)"/><rect x="370" y="162" width="16" height="16" transform="rotate(0,378,170)"/><rect x="370" y="178" width="16" height="16" transform="rotate(0,378,186)"/><rect x="370" y="194" width="16" height="16" transform="rotate(0,378,202)"/><path d="M 370 210v 16h 16v -8a 8 8, 0, 0, 0, -8 -8" transform="rotate(90,378,218)"/><path d="M 370 242v 16h 16v -8a 8 8, 0, 0, 0, -8 -8" transform="rotate(-90,378,250)"/><rect x="370" y="258" width="16" height="16" transform="rotate(0,378,266)"/><rect x="370" y="274" width="16" height="16" transform="rotate(0,378,282)"/><path d="M 370 290v 16h 16v -8a 8 8, 0, 0, 0, -8 -8" transform="rotate(180,378,298)"/><rect x="370" y="322" width="16" height="16" transform="rotate(0,378,330)"/><rect x="370" y="338" width="16" height="16" transform="rotate(0,378,346)"/><circle cx="378" cy="378" r="8" transform="rotate(0,378,378)"/><rect x="370" y="402" width="16" height="16" transform="rotate(0,378,410)"/><rect x="370" y="466" width="16" height="16" transform="rotate(0,378,474)"/><path d="M 386 162v 16h 16v -8a 8 8, 0, 0, 0, -8 -8" transform="rotate(0,394,170)"/><rect x="386" y="178" width="16" height="16" transform="rotate(0,394,186)"/><path d="M 386 242v 16h 8a 8 8, 0, 0, 0, 0 -16" transform="rotate(0,394,250)"/><path d="M 386 290v 16h 16v -8a 8 8, 0, 0, 0, -8 -8" transform="rotate(0,394,298)"/><rect x="386" y="306" width="16" height="16" transform="rotate(0,394,314)"/><rect x="386" y="322" width="16" height="16" transform="rotate(0,394,330)"/><rect x="386" y="338" width="16" height="16" transform="rotate(0,394,346)"/><rect x="386" y="402" width="16" height="16" transform="rotate(0,394,410)"/><path d="M 386 418v 16h 8a 8 8, 0, 0, 0, 0 -16" transform="rotate(90,394,426)"/><path d="M 386 450v 16h 16v -8a 8 8, 0, 0, 0, -8 -8" transform="rotate(-90,394,458)"/><path d="M 386 466v 16h 16v -8a 8 8, 0, 0, 0, -8 -8" transform="rotate(90,394,474)"/><circle cx="410" cy="154" r="8" transform="rotate(0,410,154)"/><path d="M 402 178v 16h 8a 8 8, 0, 0, 0, 0 -16" transform="rotate(0,410,186)"/><circle cx="410" cy="266" r="8" transform="rotate(0,410,266)"/><path d="M 402 306v 16h 16v -8a 8 8, 0, 0, 0, -8 -8" transform="rotate(0,410,314)"/><rect x="402" y="322" width="16" height="16" transform="rotate(0,410,330)"/><rect x="402" y="338" width="16" height="16" transform="rotate(0,410,346)"/><rect x="402" y="354" width="16" height="16" transform="rotate(0,410,362)"/><rect x="402" y="370" width="16" height="16" transform="rotate(0,410,378)"/><rect x="402" y="386" width="16" height="16" transform="rotate(0,410,394)"/><path d="M 402 402v 16h 16v -8a 8 8, 0, 0, 0, -8 -8" transform="rotate(90,410,410)"/><rect x="402" y="450" width="16" height="16" transform="rotate(0,410,458)"/><path d="M 418 162v 16h 8a 8 8, 0, 0, 0, 0 -16" transform="rotate(180,426,170)"/><path d="M 418 194v 16h 8a 8 8, 0, 0, 0, 0 -16" transform="rotate(-90,426,202)"/><rect x="418" y="210" width="16" height="16" transform="rotate(0,426,218)"/><rect x="418" y="226" width="16" height="16" transform="rotate(0,426,234)"/><path d="M 418 242v 16h 16v -8a 8 8, 0, 0, 0, -8 -8" transform="rotate(180,426,250)"/><path d="M 418 274v 16h 8a 8 8, 0, 0, 0, 0 -16" transform="rotate(180,426,282)"/><path d="M 418 386v 16h 8a 8 8, 0, 0, 0, 0 -16" transform="rotate(0,426,394)"/><path d="M 418 434v 16h 16v -8a 8 8, 0, 0, 0, -8 -8" transform="rotate(-90,426,442)"/><rect x="418" y="450" width="16" height="16" transform="rotate(0,426,458)"/><rect x="434" y="162" width="16" height="16" transform="rotate(0,442,170)"/><path d="M 434 178v 16h 8a 8 8, 0, 0, 0, 0 -16" transform="rotate(90,442,186)"/><path d="M 434 242v 16h 8a 8 8, 0, 0, 0, 0 -16" transform="rotate(0,442,250)"/><path d="M 434 274v 16h 16v -8a 8 8, 0, 0, 0, -8 -8" transform="rotate(0,442,282)"/><rect x="434" y="290" width="16" height="16" transform="rotate(0,442,298)"/><rect x="434" y="306" width="16" height="16" transform="rotate(0,442,314)"/><rect x="434" y="322" width="16" height="16" transform="rotate(0,442,330)"/><rect x="434" y="338" width="16" height="16" transform="rotate(0,442,346)"/><path d="M 434 354v 16h 8a 8 8, 0, 0, 0, 0 -16" transform="rotate(90,442,362)"/><path d="M 434 418v 16h 16v -8a 8 8, 0, 0, 0, -8 -8" transform="rotate(-90,442,426)"/><rect x="434" y="434" width="16" height="16" transform="rotate(0,442,442)"/><rect x="434" y="450" width="16" height="16" transform="rotate(0,442,458)"/><path d="M 434 466v 16h 16v -8a 8 8, 0, 0, 0, -8 -8" transform="rotate(180,442,474)"/><path d="M 450 146v 16h 8a 8 8, 0, 0, 0, 0 -16" transform="rotate(-90,458,154)"/><path d="M 450 162v 16h 16v -8a 8 8, 0, 0, 0, -8 -8" transform="rotate(90,458,170)"/><path d="M 450 194v 16h 8a 8 8, 0, 0, 0, 0 -16" transform="rotate(-90,458,202)"/><path d="M 450 210v 16h 16v -8a 8 8, 0, 0, 0, -8 -8" transform="rotate(180,458,218)"/><rect x="450" y="290" width="16" height="16" transform="rotate(0,458,298)"/><path d="M 450 322v 16h 16v -8a 8 8, 0, 0, 0, -8 -8" transform="rotate(0,458,330)"/><rect x="450" y="338" width="16" height="16" transform="rotate(0,458,346)"/><circle cx="458" cy="394" r="8" transform="rotate(0,458,394)"/><path d="M 450 418v 16h 8a 8 8, 0, 0, 0, 0 -16" transform="rotate(0,458,426)"/><rect x="450" y="450" width="16" height="16" transform="rotate(0,458,458)"/><path d="M 450 466v 16h 16v -8a 8 8, 0, 0, 0, -8 -8" transform="rotate(90,458,474)"/><circle cx="474" cy="186" r="8" transform="rotate(0,474,186)"/><path d="M 466 210v 16h 16v -8a 8 8, 0, 0, 0, -8 -8" transform="rotate(0,474,218)"/><rect x="466" y="226" width="16" height="16" transform="rotate(0,474,234)"/><rect x="466" y="242" width="16" height="16" transform="rotate(0,474,250)"/><path d="M 466 258v 16h 8a 8 8, 0, 0, 0, 0 -16" transform="rotate(90,474,266)"/><path d="M 466 290v 16h 16v -8a 8 8, 0, 0, 0, -8 -8" transform="rotate(0,474,298)"/><path d="M 466 306v 16h 8a 8 8, 0, 0, 0, 0 -16" transform="rotate(90,474,314)"/><path d="M 466 338v 16h 8a 8 8, 0, 0, 0, 0 -16" transform="rotate(0,474,346)"/><circle cx="474" cy="378" r="8" transform="rotate(0,474,378)"/><circle cx="474" cy="410" r="8" transform="rotate(0,474,410)"/><path d="M 466 450v 16h 8a 8 8, 0, 0, 0, 0 -16" transform="rotate(0,474,458)"/><path clip-rule="evenodd" d="M 18 58v 32a 40 40, 0, 0, 0, 40 40h 32a 40 40, 0, 0, 0, 40 -40v -32a 40 40, 0, 0, 0, -40 -40h -32a 40 40, 0, 0, 0, -40 40M 58 34h 32a 24 24, 0, 0, 1, 24 24v 32a 24 24, 0, 0, 1, -24 24h -32a 24 24, 0, 0, 1, -24 -24v -32a 24 24, 0, 0, 1, 24 -24" transform="rotate(0,74,74)"/><circle cx="74" cy="74" r="24" transform="rotate(0,74,74)"/><path clip-rule="evenodd" d="M 370 58v 32a 40 40, 0, 0, 0, 40 40h 32a 40 40, 0, 0, 0, 40 -40v -32a 40 40, 0, 0, 0, -40 -40h -32a 40 40, 0, 0, 0, -40 40M 410 34h 32a 24 24, 0, 0, 1, 24 24v 32a 24 24, 0, 0, 1, -24 24h -32a 24 24, 0, 0, 1, -24 -24v -32a 24 24, 0, 0, 1, 24 -24" transform="rotate(90,426,74)"/><circle cx="426" cy="74" r="24" transform="rotate(90,426,74)"/><path clip-rule="evenodd" d="M 18 410v 32a 40 40, 0, 0, 0, 40 40h 32a 40 40, 0, 0, 0, 40 -40v -32a 40 40, 0, 0, 0, -40 -40h -32a 40 40, 0, 0, 0, -40 40M 58 386h 32a 24 24, 0, 0, 1, 24 24v 32a 24 24, 0, 0, 1, -24 24h -32a 24 24, 0, 0, 1, -24 -24v -32a 24 24, 0, 0, 1, 24 -24" transform="rotate(-90,74,426)"/><circle cx="74" cy="426" r="24" transform="rotate(-90,74,426)"/></clipPath></defs><rect x="0" y="0" height="500" width="500" clip-path="url('#clip-path-background-color')" fill="#fff"/><rect x="0" y="0" height="500" width="500" clip-path="url('#clip-path-dot-color')" fill="#000000"/></svg>